<?xml version="1.0" standalone="no"?>
<!DOCTYPE svg PUBLIC "-//W3C//DTD SVG 20010904//EN"
 "http://www.w3.org/TR/2001/REC-SVG-20010904/DTD/svg10.dtd">
<svg version="1.0" xmlns="http://www.w3.org/2000/svg"
 width="471.000000pt" height="471.000000pt" viewBox="0 0 471.000000 471.000000"
 preserveAspectRatio="xMidYMid meet">
<g transform="translate(0.000000,471.000000) scale(0.100000,-0.100000)"
fill="#000000" stroke="none">
<path d="M2247 4705 c-1 -2 -40 -5 -87 -9 -292 -22 -570 -100 -845 -235 -248
-123 -424 -250 -621 -446 -293 -293 -490 -627 -603 -1025 -17 -58 -32 -118
-36 -135 -21 -119 -37 -222 -44 -295 -8 -92 -7 -381 2 -445 4 -22 9 -60 12
-85 10 -79 26 -163 42 -225 8 -33 16 -67 18 -76 9 -44 78 -236 120 -331 107
-244 304 -533 475 -696 115 -111 150 -142 215 -194 336 -267 754 -439 1195
-492 98 -12 479 -14 525 -3 11 3 47 8 79 12 68 7 241 46 336 74 261 78 534
215 738 373 393 303 666 682 816 1131 38 112 81 284 91 361 3 27 8 52 10 56 8
13 19 211 19 340 0 124 -9 265 -19 321 -3 13 -7 41 -11 64 -3 22 -10 60 -16
85 -5 25 -11 52 -13 60 -37 177 -137 433 -245 625 -220 391 -587 739 -995 943
-192 96 -445 181 -615 207 -19 3 -46 8 -60 10 -31 7 -83 13 -170 21 -63 5
-308 12 -313 9z"/>
</g>
</svg>
